<?xml version="1.0" standalone="no"?>
<!DOCTYPE svg PUBLIC "-//W3C//DTD SVG 20010904//EN"
 "http://www.w3.org/TR/2001/REC-SVG-20010904/DTD/svg10.dtd">
<svg version="1.0" xmlns="http://www.w3.org/2000/svg"
 width="300.000000pt" height="127.000000pt" viewBox="0 0 300.000000 127.000000"
 preserveAspectRatio="xMidYMid meet">
<metadata>
Created by potrace 1.10, written by Peter Selinger 2001-2011
</metadata>
<g transform="translate(0.000000,127.000000) scale(0.100000,-0.100000)"
fill="#000000" stroke="none">
<path d="M1100 620 c0 -313 2 -360 15 -360 13 0 15 47 15 360 0 313 -2 360
-15 360 -13 0 -15 -47 -15 -360z"/>
<path d="M1340 960 c0 -16 7 -20 36 -20 l36 0 -4 -100 -3 -100 28 0 28 0 -3
100 -3 100 38 0 c30 0 37 4 37 20 0 19 -7 20 -95 20 -88 0 -95 -1 -95 -20z"/>
<path d="M493 919 c-79 -25 -161 -97 -200 -177 -23 -48 -28 -70 -28 -137 0
-71 4 -88 33 -147 36 -73 86 -123 161 -160 37 -18 63 -23 136 -23 80 0 97 3
148 29 70 36 120 89 156 165 38 81 37 193 -2 273 -47 95 -127 160 -232 187
-57 15 -101 13 -172 -10z m234 -45 c145 -69 210 -250 142 -395 -31 -65 -84
-120 -148 -151 -69 -34 -187 -32 -256 4 -109 58 -169 154 -169 273 -1 222 229
365 431 269z"/>
<path d="M501 853 c-26 -9 -65 -36 -91 -62 -127 -127 -100 -325 58 -423 54
-33 172 -37 235 -8 63 30 105 72 135 139 21 45 24 64 20 121 -13 181 -186 293
-357 233z m171 -29 c50 -17 109 -67 134 -115 8 -17 18 -52 21 -79 17 -141 -89
-260 -232 -260 -233 0 -321 295 -129 429 61 43 131 51 206 25z"/>
<path d="M580 730 c0 -11 -4 -20 -10 -20 -18 0 -50 -39 -50 -60 0 -13 12 -28
30 -38 25 -14 30 -23 30 -55 0 -35 -2 -37 -20 -27 -11 6 -20 19 -20 30 0 25
-18 36 -26 16 -8 -20 22 -67 47 -73 10 -3 19 -14 19 -24 0 -11 7 -19 15 -19 8
0 15 9 15 20 0 13 7 20 20 20 23 0 53 41 48 67 -2 10 -18 25 -35 33 -28 13
-33 20 -33 54 0 33 2 37 15 26 8 -7 15 -19 15 -26 0 -8 7 -14 15 -14 18 0 18
2 3 34 -6 14 -19 28 -28 31 -10 3 -20 15 -23 25 -7 26 -27 26 -27 0z m0 -75
c0 -26 -3 -33 -15 -29 -18 7 -20 35 -3 52 17 17 18 16 18 -23z m54 -71 c31
-12 14 -64 -20 -64 -2 0 -4 16 -4 35 0 38 0 38 24 29z"/>
<path d="M1548 843 c4 -84 19 -113 56 -113 12 0 31 7 43 15 19 13 22 13 27 0
3 -8 12 -15 21 -15 12 0 15 16 15 95 0 94 0 95 -25 95 -23 0 -24 -3 -27 -72
-3 -71 -4 -73 -30 -76 -22 -3 -29 2 -34 23 -4 15 -4 49 -1 76 6 48 6 49 -21
49 l-27 0 3 -77z"/>
<path d="M2160 565 c-9 -11 -10 -19 -3 -26 17 -17 48 -6 48 16 0 25 -28 31
-45 10z"/>
<path d="M1685 540 c-15 -28 -14 -30 4 -30 11 0 29 14 41 30 l21 30 -25 0
c-18 0 -30 -9 -41 -30z"/>
<path d="M1360 425 l0 -125 26 0 26 0 -3 85 c-4 82 1 104 15 68 4 -9 26 -47
49 -85 33 -53 47 -67 67 -68 l25 0 -2 122 c-2 120 -2 123 -24 123 -21 0 -22
-3 -20 -90 l2 -90 -57 93 c-46 74 -61 92 -80 92 -24 0 -24 0 -24 -125z"/>
<path d="M1655 478 c-33 -19 -44 -41 -45 -86 0 -58 33 -92 89 -92 50 0 91 43
91 97 0 67 -77 114 -135 81z m79 -59 c19 -55 -13 -101 -55 -79 -19 11 -26 60
-13 95 10 26 57 15 68 -16z"/>
<path d="M1830 395 c0 -94 0 -95 25 -95 23 0 24 3 27 73 3 69 4 72 28 72 24 0
25 -3 28 -72 3 -70 4 -73 27 -73 24 0 25 2 25 70 0 67 1 70 26 76 37 9 46 -10
41 -83 -5 -63 -4 -63 22 -63 l26 0 -3 83 c-3 60 -8 85 -20 95 -21 16 -53 15
-79 -3 -18 -13 -22 -13 -33 0 -16 19 -50 19 -77 0 -19 -13 -22 -13 -27 0 -3 8
-12 15 -21 15 -12 0 -15 -16 -15 -95z"/>
<path d="M2160 488 c-1 -2 -2 -45 -3 -96 l-2 -92 28 0 27 0 0 95 c0 95 0 95
-25 95 -14 0 -25 -1 -25 -2z"/>
<path d="M2260 395 c0 -95 0 -95 25 -95 24 0 25 2 25 70 0 66 1 70 25 76 14 4
29 3 33 -1 4 -3 6 -38 4 -76 l-3 -69 28 0 28 0 -3 83 c-3 60 -8 85 -20 95 -21
16 -53 15 -79 -3 -19 -13 -22 -13 -27 0 -3 8 -12 15 -21 15 -12 0 -15 -16 -15
-95z"/>
<path d="M2493 480 c-38 -15 -18 -39 30 -37 32 2 42 -2 45 -15 3 -14 -3 -18
-30 -18 -46 0 -78 -24 -78 -59 0 -15 5 -32 12 -39 16 -16 70 -15 87 1 11 10
14 10 18 0 3 -7 13 -13 24 -13 17 0 19 8 19 69 0 54 -4 74 -21 95 -22 28 -62
34 -106 16z m75 -116 c-5 -25 -35 -41 -49 -27 -18 18 -3 43 26 43 19 0 26 -5
23 -16z"/>
</g>
</svg>
